<?xml version="1.0" standalone="no"?>
<!DOCTYPE svg PUBLIC "-//W3C//DTD SVG 20010904//EN"
 "http://www.w3.org/TR/2001/REC-SVG-20010904/DTD/svg10.dtd">
<svg version="1.0" xmlns="http://www.w3.org/2000/svg"
 width="512.000000pt" height="512.000000pt" viewBox="0 0 512.000000 512.000000"
 preserveAspectRatio="xMidYMid meet">

<g transform="translate(0.000000,512.000000) scale(0.100000,-0.100000)"
fill="darkred" stroke="none">
<path d="M800 4480 l160 -320 -480 0 -480 0 0 -467 c0 -592 12 -697 99 -877
141 -291 442 -474 888 -541 53 -8 97 -16 98 -17 1 -2 21 -42 45 -90 197 -407
584 -720 1034 -837 l71 -19 0 -228 0 -229 -32 -67 c-107 -226 -408 -369 -908
-432 -162 -21 -384 -36 -532 -36 l-123 0 0 -160 0 -160 1920 0 1920 0 0 160 0
160 -119 0 c-391 0 -832 66 -1066 159 -186 74 -312 176 -373 300 l-37 76 0
229 0 229 85 23 c408 108 747 366 968 735 29 47 61 109 73 137 19 46 25 52 58
57 129 20 177 30 265 52 400 99 662 330 745 658 35 136 41 244 41 723 l0 462
-480 0 -480 0 160 320 160 320 -1920 0 -1920 0 160 -320z m1902 -585 c77 -220
142 -403 146 -407 4 -3 204 -10 444 -14 241 -4 436 -10 433 -14 -2 -3 -158
-123 -346 -266 -188 -142 -343 -263 -345 -269 -3 -6 52 -196 121 -424 69 -227
124 -415 122 -417 -2 -2 -149 98 -328 223 -178 124 -341 237 -361 250 l-37 25
-360 -251 c-199 -138 -363 -251 -365 -251 -2 0 52 183 120 408 68 224 125 415
126 424 2 12 -96 92 -342 279 -190 143 -346 264 -348 268 -1 5 194 12 435 16
241 4 439 8 441 10 1 1 61 170 132 376 163 468 162 467 168 449 3 -8 68 -195
144 -415z m-1742 -675 c0 -341 -3 -620 -7 -620 -5 0 -51 12 -103 26 -228 61
-384 173 -460 328 -61 124 -70 199 -70 572 l0 314 320 0 320 0 0 -620z m3837
263 c-5 -397 -7 -418 -74 -545 -74 -142 -239 -256 -453 -313 -52 -14 -98 -25
-102 -25 -5 0 -8 279 -8 620 l0 620 321 0 321 0 -5 -357z"/>
</g>
</svg>
