<?xml version="1.0" encoding="utf-8"?>
<!-- Svg Vector Icons : http://www.onlinewebfonts.com/icon -->
<!DOCTYPE svg PUBLIC "-//W3C//DTD SVG 1.1//EN" "http://www.w3.org/Graphics/SVG/1.1/DTD/svg11.dtd">
<svg version="1.1" xmlns="http://www.w3.org/2000/svg" xmlns:xlink="http://www.w3.org/1999/xlink" x="0px" y="0px" viewBox="0 0 1000 1000" enable-background="new 0 0 1000 1000" xml:space="preserve">
<metadata> Svg Vector Icons : http://www.onlinewebfonts.com/icon </metadata>
<g><path fill="darkred" d="M836.3,67.6h-76.9V48.4c0-21.2-17.2-38.4-38.4-38.4h-76.9c-21.2,0-38.4,17.2-38.4,38.4v19.2H394.3V48.4c0-21.2-17.2-38.4-38.4-38.4H279c-21.2,0-38.4,17.2-38.4,38.4v19.2h-76.9C78.8,67.6,10,136.5,10,221.4v614.9C10,921.2,78.8,990,163.7,990h672.5c84.9,0,153.7-68.8,153.7-153.7V221.4C990,136.5,921.2,67.6,836.3,67.6z M644.1,48.4H721v211.4h-76.9V48.4z M279,48.4h76.9v211.4H279V48.4z M951.6,797.8c0,84.9-49.6,153.7-134.5,153.7H182.9c-84.9,0-134.5-68.8-134.5-153.7v-538c0-84.9,49.6-153.7,134.5-153.7h57.6v192.2h153.7V106.1h211.4v192.2h153.7V106.1h57.6c84.9,0,134.5,68.8,134.5,153.7L951.6,797.8L951.6,797.8z M279,454.3l-96.1,36V548l96.1-36v305h57.6V432.7H279V454.3z M413.5,740.2h76.9v-57.6h-76.9V740.2z M567.3,817h249.8V432.7H567.3V817z M624.9,490.4h134.5v269H624.9V490.4z M413.5,586.5h76.9v-57.6h-76.9V586.5z"/></g>
</svg>